<svg width="190" height="67" viewBox="0 0 190 67" fill="none" xmlns="http://www.w3.org/2000/svg">
<path d="M105.173 15.4545H107.787V25.6818C107.782 26.6193 107.583 27.4266 107.19 28.1037C106.797 28.776 106.248 29.2945 105.543 29.6591C104.842 30.0189 104.025 30.1989 103.092 30.1989C102.24 30.1989 101.473 30.0473 100.791 29.7443C100.114 29.4366 99.5767 28.982 99.179 28.3807C98.7813 27.7794 98.5824 27.0312 98.5824 26.1364H101.203C101.208 26.5294 101.293 26.8679 101.459 27.152C101.629 27.4361 101.864 27.6539 102.162 27.8054C102.46 27.9569 102.804 28.0327 103.192 28.0327C103.613 28.0327 103.971 27.9451 104.264 27.7699C104.558 27.59 104.78 27.3248 104.932 26.9744C105.088 26.6241 105.169 26.1932 105.173 25.6818V15.4545ZM115.29 30.2131C114.225 30.2131 113.302 29.9787 112.521 29.5099C111.739 29.0412 111.133 28.3854 110.702 27.5426C110.276 26.6998 110.063 25.715 110.063 24.5881C110.063 23.4612 110.276 22.474 110.702 21.6264C111.133 20.7789 111.739 20.1207 112.521 19.652C113.302 19.1832 114.225 18.9489 115.29 18.9489C116.356 18.9489 117.279 19.1832 118.06 19.652C118.842 20.1207 119.445 20.7789 119.871 21.6264C120.302 22.474 120.518 23.4612 120.518 24.5881C120.518 25.715 120.302 26.6998 119.871 27.5426C119.445 28.3854 118.842 29.0412 118.06 29.5099C117.279 29.9787 116.356 30.2131 115.29 30.2131ZM115.305 28.1534C115.882 28.1534 116.365 27.9948 116.754 27.6776C117.142 27.3556 117.431 26.9247 117.62 26.3849C117.814 25.8452 117.911 25.2438 117.911 24.581C117.911 23.9134 117.814 23.3097 117.62 22.7699C117.431 22.2254 117.142 21.7921 116.754 21.4702C116.365 21.1482 115.882 20.9872 115.305 20.9872C114.713 20.9872 114.22 21.1482 113.827 21.4702C113.439 21.7921 113.148 22.2254 112.954 22.7699C112.764 23.3097 112.67 23.9134 112.67 24.581C112.67 25.2438 112.764 25.8452 112.954 26.3849C113.148 26.9247 113.439 27.3556 113.827 27.6776C114.22 27.9948 114.713 28.1534 115.305 28.1534ZM122.814 30V15.4545H125.385V20.8949H125.491C125.624 20.6297 125.811 20.348 126.052 20.0497C126.294 19.7467 126.62 19.4886 127.032 19.2756C127.444 19.0578 127.97 18.9489 128.609 18.9489C129.452 18.9489 130.212 19.1643 130.889 19.5952C131.571 20.0213 132.11 20.6534 132.508 21.4915C132.911 22.3248 133.112 23.3475 133.112 24.5597C133.112 25.7576 132.915 26.7756 132.522 27.6136C132.129 28.4517 131.594 29.0909 130.917 29.5312C130.24 29.9716 129.473 30.1918 128.616 30.1918C127.991 30.1918 127.473 30.0876 127.061 29.8793C126.649 29.6709 126.317 29.42 126.066 29.1264C125.82 28.8281 125.628 28.5464 125.491 28.2812H125.342V30H122.814ZM125.335 24.5455C125.335 25.2509 125.434 25.8688 125.633 26.3991C125.837 26.9295 126.128 27.3437 126.507 27.642C126.89 27.9356 127.354 28.0824 127.899 28.0824C128.467 28.0824 128.943 27.9309 129.326 27.6278C129.71 27.3201 129.999 26.901 130.193 26.3707C130.392 25.8357 130.491 25.2273 130.491 24.5455C130.491 23.8684 130.394 23.267 130.2 22.7415C130.006 22.2159 129.717 21.804 129.333 21.5057C128.95 21.2074 128.472 21.0582 127.899 21.0582C127.35 21.0582 126.883 21.2027 126.5 21.4915C126.116 21.7803 125.825 22.1851 125.626 22.706C125.432 23.2268 125.335 23.84 125.335 24.5455ZM98.7955 41.6634V39.4545H110.401V41.6634H105.905V54H103.291V41.6634H98.7955ZM111.391 54V43.0909H113.884V44.9091H113.998C114.197 44.2794 114.538 43.794 115.021 43.4531C115.508 43.1075 116.065 42.9347 116.69 42.9347C116.832 42.9347 116.99 42.9418 117.165 42.956C117.345 42.9654 117.495 42.982 117.613 43.0057V45.3707C117.504 45.3329 117.331 45.2997 117.094 45.2713C116.862 45.2382 116.638 45.2216 116.42 45.2216C115.951 45.2216 115.53 45.3234 115.156 45.527C114.786 45.7259 114.495 46.0028 114.282 46.358C114.069 46.7131 113.962 47.1226 113.962 47.5866V54H111.391ZM122.265 54.2202C121.574 54.2202 120.951 54.0971 120.397 53.8509C119.848 53.5999 119.412 53.2306 119.09 52.7429C118.773 52.2552 118.614 51.6539 118.614 50.9389C118.614 50.3234 118.728 49.8144 118.955 49.4119C119.183 49.0095 119.493 48.6875 119.886 48.446C120.279 48.2045 120.721 48.0223 121.214 47.8991C121.711 47.7713 122.225 47.679 122.755 47.6222C123.394 47.5559 123.913 47.4967 124.31 47.4446C124.708 47.3878 124.997 47.3026 125.177 47.1889C125.362 47.0705 125.454 46.8883 125.454 46.642V46.5994C125.454 46.0644 125.295 45.6501 124.978 45.3565C124.661 45.063 124.204 44.9162 123.607 44.9162C122.978 44.9162 122.478 45.0535 122.109 45.3281C121.744 45.6027 121.498 45.9271 121.37 46.3011L118.969 45.9602C119.159 45.2973 119.471 44.7434 119.907 44.2983C120.343 43.8485 120.875 43.5123 121.505 43.2898C122.135 43.0625 122.831 42.9489 123.593 42.9489C124.119 42.9489 124.642 43.0104 125.163 43.1335C125.683 43.2566 126.159 43.4602 126.59 43.7443C127.021 44.0237 127.367 44.4048 127.627 44.8878C127.892 45.3707 128.025 45.9744 128.025 46.6989V54H125.553V52.5014H125.468C125.312 52.8045 125.092 53.0885 124.808 53.3537C124.528 53.6141 124.175 53.8248 123.749 53.9858C123.328 54.142 122.833 54.2202 122.265 54.2202ZM122.933 52.331C123.449 52.331 123.896 52.2292 124.275 52.0256C124.654 51.8172 124.945 51.5426 125.148 51.2017C125.357 50.8608 125.461 50.4891 125.461 50.0866V48.8011C125.38 48.8674 125.243 48.929 125.049 48.9858C124.86 49.0426 124.647 49.0923 124.41 49.1349C124.173 49.1776 123.939 49.2154 123.707 49.2486C123.475 49.2817 123.273 49.3101 123.103 49.3338C122.719 49.3859 122.376 49.4711 122.073 49.5895C121.77 49.7079 121.531 49.8736 121.356 50.0866C121.181 50.295 121.093 50.5649 121.093 50.8963C121.093 51.3698 121.266 51.7273 121.612 51.9688C121.957 52.2102 122.397 52.331 122.933 52.331ZM135.369 54.2131C134.28 54.2131 133.344 53.974 132.563 53.4957C131.787 53.0175 131.188 52.357 130.766 51.5142C130.35 50.6667 130.141 49.6913 130.141 48.5881C130.141 47.4801 130.354 46.5024 130.781 45.6548C131.207 44.8026 131.808 44.1397 132.585 43.6662C133.366 43.188 134.289 42.9489 135.354 42.9489C136.24 42.9489 137.023 43.1122 137.705 43.4389C138.392 43.7609 138.939 44.2178 139.346 44.8097C139.753 45.3968 139.985 46.0833 140.042 46.8693H137.585C137.485 46.3437 137.248 45.9058 136.874 45.5554C136.505 45.2003 136.01 45.0227 135.39 45.0227C134.864 45.0227 134.403 45.1648 134.005 45.4489C133.607 45.7282 133.297 46.1307 133.075 46.6562C132.857 47.1818 132.748 47.8116 132.748 48.5455C132.748 49.2888 132.857 49.928 133.075 50.4631C133.292 50.9934 133.598 51.4029 133.991 51.6918C134.388 51.9759 134.855 52.1179 135.39 52.1179C135.769 52.1179 136.107 52.0469 136.406 51.9048C136.709 51.758 136.962 51.5473 137.165 51.2727C137.369 50.9981 137.509 50.6643 137.585 50.2713H140.042C139.98 51.0431 139.753 51.7273 139.36 52.3239C138.967 52.9157 138.432 53.3797 137.755 53.7159C137.078 54.0473 136.282 54.2131 135.369 54.2131ZM144.497 50.5767L144.49 47.473H144.902L148.822 43.0909H151.826L147.004 48.4602H146.471L144.497 50.5767ZM142.153 54V39.4545H144.724V54H142.153ZM149 54L145.449 49.0355L147.181 47.2244L152.075 54H149ZM157.92 54.2131C156.826 54.2131 155.882 53.9858 155.086 53.5312C154.296 53.072 153.687 52.4233 153.261 51.5852C152.835 50.7424 152.622 49.7505 152.622 48.6094C152.622 47.4872 152.835 46.5024 153.261 45.6548C153.692 44.8026 154.293 44.1397 155.065 43.6662C155.837 43.188 156.743 42.9489 157.785 42.9489C158.458 42.9489 159.092 43.0578 159.689 43.2756C160.29 43.4886 160.82 43.8201 161.279 44.2699C161.743 44.7197 162.108 45.2926 162.373 45.9886C162.638 46.6799 162.771 47.5038 162.771 48.4602V49.2486H153.829V47.5156H160.306C160.302 47.0232 160.195 46.5852 159.987 46.2017C159.779 45.8134 159.487 45.508 159.113 45.2855C158.744 45.063 158.313 44.9517 157.821 44.9517C157.295 44.9517 156.833 45.0795 156.436 45.3352C156.038 45.5862 155.728 45.9176 155.505 46.3295C155.288 46.7367 155.176 47.1842 155.172 47.6719V49.1847C155.172 49.8191 155.288 50.3636 155.52 50.8182C155.752 51.268 156.076 51.6136 156.493 51.8551C156.909 52.0919 157.397 52.2102 157.956 52.2102C158.33 52.2102 158.668 52.1581 158.971 52.054C159.274 51.9451 159.537 51.7865 159.76 51.5781C159.982 51.3698 160.15 51.1117 160.264 50.804L162.664 51.0739C162.513 51.7083 162.224 52.2623 161.798 52.7358C161.377 53.2045 160.837 53.5691 160.179 53.8295C159.52 54.0852 158.768 54.2131 157.92 54.2131ZM164.946 54V43.0909H167.439V44.9091H167.553C167.751 44.2794 168.092 43.794 168.575 43.4531C169.063 43.1075 169.619 42.9347 170.244 42.9347C170.386 42.9347 170.545 42.9418 170.72 42.956C170.9 42.9654 171.049 42.982 171.168 43.0057V45.3707C171.059 45.3329 170.886 45.2997 170.649 45.2713C170.417 45.2382 170.192 45.2216 169.974 45.2216C169.506 45.2216 169.084 45.3234 168.71 45.527C168.341 45.7259 168.05 46.0028 167.837 46.358C167.624 46.7131 167.517 47.1226 167.517 47.5866V54H164.946Z" fill="#7E023C"/>
<g filter="url(#filter0_d_2_11)">
<path d="M23.2773 14H32.8086V41.6562C32.7956 44.2474 32.1771 46.513 30.9531 48.4531C29.7292 50.3802 28.0365 51.8776 25.875 52.9453C23.7266 54.013 21.2396 54.5469 18.4141 54.5469C15.9141 54.5469 13.6419 54.1107 11.5977 53.2383C9.56641 52.3659 7.94531 51.0117 6.73438 49.1758C5.53646 47.3398 4.94401 44.9896 4.95703 42.125H14.5859C14.625 43.1536 14.8203 44.0326 15.1719 44.7617C15.5365 45.4779 16.0378 46.0182 16.6758 46.3828C17.3138 46.7474 18.0755 46.9297 18.9609 46.9297C19.8854 46.9297 20.6667 46.7344 21.3047 46.3437C21.9427 45.9401 22.4245 45.3477 22.75 44.5664C23.0885 43.7852 23.2643 42.8151 23.2773 41.6562V14ZM49.3857 21.8516V14H83.1943V21.8516H71.0654V54H61.5342V21.8516H49.3857Z" fill="#FC3692"/>
</g>
<defs>
<filter id="filter0_d_2_11" x="0.9375" y="14" width="86.2568" height="48.5469" filterUnits="userSpaceOnUse" color-interpolation-filters="sRGB">
<feFlood flood-opacity="0" result="BackgroundImageFix"/>
<feColorMatrix in="SourceAlpha" type="matrix" values="0 0 0 0 0 0 0 0 0 0 0 0 0 0 0 0 0 0 127 0" result="hardAlpha"/>
<feOffset dy="4"/>
<feGaussianBlur stdDeviation="2"/>
<feComposite in2="hardAlpha" operator="out"/>
<feColorMatrix type="matrix" values="0 0 0 0 0 0 0 0 0 0 0 0 0 0 0 0 0 0 0.25 0"/>
<feBlend mode="normal" in2="BackgroundImageFix" result="effect1_dropShadow_2_11"/>
<feBlend mode="normal" in="SourceGraphic" in2="effect1_dropShadow_2_11" result="shape"/>
</filter>
</defs>
</svg>
